# Blender v3.4.1 OBJ File: 'October2024_Vampire_Assets_Export.blend'
# www.blender.org
mtllib Gem_Large.mtl
o Gem_Large
v 0.024484 0.313879 -0.098445
v -0.000000 0.276440 -0.116984
v -0.024484 0.313879 -0.098445
v -0.000000 0.276440 0.116984
v 0.024484 0.313879 0.098445
v -0.024484 0.313879 0.098445
v 0.160005 0.184061 -0.116984
v 0.180186 0.223984 -0.098445
v 0.204670 0.181577 -0.098445
v 0.180186 0.223984 0.098445
v 0.160005 0.184061 0.116984
v 0.204670 0.181577 0.098445
v 0.160005 -0.184061 -0.116984
v 0.204670 -0.181577 -0.098445
v 0.180186 -0.223985 -0.098445
v 0.204670 -0.181577 0.098445
v 0.160005 -0.184061 0.116984
v 0.180186 -0.223985 0.098445
v -0.000000 -0.276440 -0.116984
v 0.024484 -0.313879 -0.098445
v -0.024484 -0.313879 -0.098445
v 0.024484 -0.313879 0.098445
v -0.000000 -0.276440 0.116984
v -0.024484 -0.313879 0.098445
v -0.160005 -0.184061 -0.116984
v -0.180186 -0.223985 -0.098445
v -0.204670 -0.181577 -0.098445
v -0.180186 -0.223985 0.098445
v -0.160005 -0.184061 0.116984
v -0.204670 -0.181577 0.098445
v -0.160005 0.184061 -0.116984
v -0.204670 0.181577 -0.098445
v -0.180186 0.223984 -0.098445
v -0.204670 0.181577 0.098445
v -0.160005 0.184061 0.116984
v -0.180186 0.223984 0.098445
v 0.024484 0.405874 0.018540
v 0.024484 0.405874 -0.018539
v -0.024484 0.405874 -0.018539
v -0.024484 0.405874 0.018540
v 0.259856 0.269982 -0.018539
v 0.259856 0.269982 0.018540
v 0.284340 0.227574 0.018540
v 0.284340 0.227574 -0.018539
v 0.284340 -0.227574 -0.018539
v 0.284340 -0.227574 0.018540
v 0.259856 -0.269982 0.018540
v 0.259856 -0.269982 -0.018539
v 0.024484 -0.405874 -0.018539
v 0.024484 -0.405874 0.018540
v -0.024484 -0.405874 0.018540
v -0.024484 -0.405874 -0.018539
v -0.259856 -0.269982 -0.018539
v -0.259856 -0.269982 0.018540
v -0.284340 -0.227574 0.018540
v -0.284340 -0.227574 -0.018539
v -0.284340 0.227574 -0.018539
v -0.284340 0.227574 0.018540
v -0.259856 0.269982 0.018540
v -0.259856 0.269982 -0.018539
vt 0.271095 0.404545
vt 0.273831 0.386970
vt 0.279178 0.421317
vt 0.279178 0.456466
vt 0.286207 0.362846
vt 0.288943 0.345271
vt 0.280860 0.293350
vt 0.280860 0.328499
vt 0.279178 0.328499
vt 0.279178 0.293350
vt 0.271095 0.345271
vt 0.273831 0.362846
vt 0.272991 0.325223
vt 0.270255 0.307649
vt 0.270255 0.411492
vt 0.272991 0.393917
vt 0.280860 0.456466
vt 0.280860 0.421317
vt 0.286207 0.386970
vt 0.288943 0.404544
vt 0.287048 0.393917
vt 0.289784 0.411492
vt 0.289784 0.307648
vt 0.287048 0.325223
vt 0.273831 0.386970
vt 0.271095 0.404544
vt 0.279178 0.456466
vt 0.279178 0.421317
vt 0.285514 0.418016
vt 0.280019 0.453313
vt 0.274524 0.418017
vt 0.270255 0.307648
vt 0.272991 0.325223
vt 0.272991 0.393917
vt 0.270255 0.411492
vt 0.279178 0.293350
vt 0.279178 0.328499
vt 0.273831 0.362846
vt 0.271095 0.345271
vt 0.288943 0.345271
vt 0.286207 0.362846
vt 0.280860 0.328499
vt 0.280860 0.293350
vt 0.289784 0.411492
vt 0.287048 0.393917
vt 0.287048 0.325223
vt 0.289784 0.307648
vt 0.274524 0.347424
vt 0.285514 0.347424
vt 0.280019 0.312128
vt 0.327857 0.456521
vt 0.326601 0.448880
vt 0.325345 0.456521
vt 0.326601 0.448880
vt 0.327857 0.456521
vt 0.325345 0.456521
vt 0.334809 0.430026
vt 0.335845 0.438174
vt 0.337101 0.429519
vt 0.335845 0.438174
vt 0.334809 0.430026
vt 0.337101 0.429519
vt 0.334809 0.392318
vt 0.337101 0.392825
vt 0.335845 0.384170
vt 0.337101 0.392825
vt 0.334809 0.392318
vt 0.335845 0.384169
vt 0.326601 0.373463
vt 0.327857 0.365822
vt 0.325345 0.365822
vt 0.327857 0.365822
vt 0.326601 0.373463
vt 0.325345 0.365822
vt 0.318393 0.392318
vt 0.317358 0.384170
vt 0.316101 0.392825
vt 0.317358 0.384169
vt 0.318393 0.392318
vt 0.316101 0.392825
vt 0.318393 0.430026
vt 0.316101 0.429519
vt 0.317358 0.438174
vt 0.316101 0.429519
vt 0.318393 0.430026
vt 0.317358 0.438174
vt 0.327857 0.475297
vt 0.327857 0.475297
vt 0.325345 0.475297
vt 0.325345 0.475297
vt 0.339932 0.447562
vt 0.339932 0.447562
vt 0.341188 0.438907
vt 0.341188 0.438907
vt 0.341188 0.383437
vt 0.341188 0.383437
vt 0.339932 0.374781
vt 0.339932 0.374781
vt 0.327857 0.347047
vt 0.327857 0.347046
vt 0.325345 0.347046
vt 0.325345 0.347047
vt 0.313270 0.374782
vt 0.313270 0.374781
vt 0.312014 0.383437
vt 0.312014 0.383437
vt 0.312014 0.438907
vt 0.312014 0.438907
vt 0.313270 0.447562
vt 0.313270 0.447562
vt 0.280860 0.421317
vt 0.280860 0.456466
vt 0.288943 0.404545
vt 0.286207 0.386970
vt 0.285514 0.347424
vt 0.274524 0.347424
vt 0.280019 0.312128
vt 0.285514 0.418017
vt 0.274524 0.418017
vt 0.280019 0.453313
vn -0.3541 0.6133 0.7061
vn 0.3541 -0.6133 -0.7061
vn -0.3541 -0.6133 -0.7061
vn -0.7081 0.0000 -0.7061
vn 0.3541 0.6133 0.7061
vn 0.7081 -0.0000 -0.7061
vn -0.3541 0.6133 -0.7061
vn -0.0000 0.0000 1.0000
vn -0.7081 -0.0000 0.7061
vn -0.3541 -0.6133 0.7061
vn 0.3541 -0.6133 0.7061
vn 0.7081 -0.0000 0.7061
vn 0.0000 0.0000 -1.0000
vn 0.0748 0.4882 -0.8695
vn 0.0000 0.3664 -0.9305
vn -0.0748 0.4882 -0.8695
vn -0.0000 0.3664 0.9305
vn 0.0748 0.4882 0.8695
vn -0.0748 0.4882 0.8695
vn 0.3173 0.1832 -0.9305
vn 0.3854 0.3088 -0.8695
vn 0.4601 0.1793 -0.8695
vn 0.3854 0.3088 0.8695
vn 0.3173 0.1832 0.9305
vn 0.4601 0.1793 0.8695
vn 0.3173 -0.1832 -0.9305
vn 0.4601 -0.1793 -0.8695
vn 0.3854 -0.3088 -0.8695
vn 0.4601 -0.1793 0.8695
vn 0.3173 -0.1832 0.9305
vn 0.3854 -0.3088 0.8695
vn 0.0000 -0.3664 -0.9305
vn 0.0748 -0.4882 -0.8695
vn -0.0748 -0.4882 -0.8695
vn 0.0748 -0.4882 0.8695
vn 0.0000 -0.3664 0.9305
vn -0.0748 -0.4882 0.8695
vn -0.3173 -0.1832 -0.9305
vn -0.3854 -0.3088 -0.8695
vn -0.4601 -0.1793 -0.8695
vn -0.3854 -0.3088 0.8695
vn -0.3173 -0.1832 0.9305
vn -0.4601 -0.1793 0.8695
vn -0.3173 0.1832 -0.9305
vn -0.4601 0.1793 -0.8695
vn -0.3854 0.3088 -0.8695
vn -0.4601 0.1793 0.8695
vn -0.3173 0.1832 0.9305
vn -0.3854 0.3088 0.8695
vn 0.2588 0.9659 0.0000
vn -0.2588 0.9659 0.0000
vn 0.7071 0.7071 0.0000
vn 0.9659 0.2588 0.0000
vn 0.9659 -0.2588 0.0000
vn 0.7071 -0.7071 0.0000
vn 0.2588 -0.9659 0.0000
vn -0.2588 -0.9659 0.0000
vn -0.7071 -0.7071 0.0000
vn -0.9659 -0.2588 0.0000
vn -0.9659 0.2588 0.0000
vn -0.7071 0.7071 0.0000
vn 0.0000 0.6558 0.7550
vn 0.5679 0.3279 -0.7550
vn 0.5679 -0.3279 -0.7550
vn 0.0000 -0.6558 -0.7550
vn -0.5679 -0.3279 -0.7550
vn -0.5679 0.3279 -0.7550
vn 0.0000 0.6558 -0.7550
vn 0.5679 0.3279 0.7550
vn 0.5679 -0.3279 0.7550
vn 0.0000 -0.6558 0.7550
vn -0.5679 -0.3279 0.7550
vn -0.5679 0.3279 0.7550
vn 0.3541 0.6133 -0.7061
usemtl vampire
s 1
f 59/1/1 36/2/1 6/3/1 40/4/1
f 15/5/2 48/6/2 49/7/2 20/8/2
f 21/9/3 52/10/3 53/11/3 26/12/3
f 27/13/4 56/14/4 57/15/4 32/16/4
f 37/17/5 5/18/5 10/19/5 42/20/5
f 9/21/6 44/22/6 45/23/6 14/24/6
f 33/25/7 60/26/7 39/27/7 3/28/7
f 11/29/8 4/30/8 35/31/8
f 55/32/9 30/33/9 34/34/9 58/35/9
f 51/36/10 24/37/10 28/38/10 54/39/10
f 47/40/11 18/41/11 22/42/11 50/43/11
f 43/44/12 12/45/12 16/46/12 46/47/12
f 25/48/13 13/49/13 19/50/13
f 1/51/14 2/52/15 3/53/16
f 4/54/17 5/55/18 6/56/19
f 7/57/20 8/58/21 9/59/22
f 10/60/23 11/61/24 12/62/25
f 13/63/26 14/64/27 15/65/28
f 16/66/29 17/67/30 18/68/31
f 19/69/32 20/70/33 21/71/34
f 22/72/35 23/73/36 24/74/37
f 25/75/38 26/76/39 27/77/40
f 28/78/41 29/79/42 30/80/43
f 31/81/44 32/82/45 33/83/46
f 34/84/47 35/85/48 36/86/49
f 37/87/50 38/88/50 39/89/51 40/90/51
f 41/91/52 42/92/52 43/93/53 44/94/53
f 45/95/54 46/96/54 47/97/55 48/98/55
f 49/99/56 50/100/56 51/101/57 52/102/57
f 53/103/58 54/104/58 55/105/59 56/106/59
f 57/107/60 58/108/60 59/109/61 60/110/61
f 1/51/14 8/58/21 7/57/20 2/52/15
f 10/60/23 5/55/18 4/54/17 11/61/24
f 40/90/62 6/56/19 5/55/18 37/87/62
f 44/94/63 9/59/22 8/58/21 41/91/63
f 9/59/22 14/64/27 13/63/26 7/57/20
f 16/66/29 12/62/25 11/61/24 17/67/30
f 48/98/64 15/65/28 14/64/27 45/95/64
f 15/65/28 20/70/33 19/69/32 13/63/26
f 22/72/35 18/68/31 17/67/30 23/73/36
f 52/102/65 21/71/34 20/70/33 49/99/65
f 21/71/34 26/76/39 25/75/38 19/69/32
f 28/78/41 24/74/37 23/73/36 29/79/42
f 56/106/66 27/77/40 26/76/39 53/103/66
f 27/77/40 32/82/45 31/81/44 25/75/38
f 34/84/47 30/80/43 29/79/42 35/85/48
f 60/110/67 33/83/46 32/82/45 57/107/67
f 33/83/46 3/53/16 2/52/15 31/81/44
f 6/56/19 36/86/49 35/85/48 4/54/17
f 3/53/16 39/89/68 38/88/68 1/51/14
f 12/62/25 43/93/69 42/92/69 10/60/23
f 18/68/31 47/97/70 46/96/70 16/66/29
f 24/74/37 51/101/71 50/100/71 22/72/35
f 30/80/43 55/105/72 54/104/72 28/78/41
f 36/86/49 59/109/73 58/108/73 34/84/47
f 59/109/61 40/90/51 39/89/51 60/110/61
f 55/105/59 58/108/60 57/107/60 56/106/59
f 51/101/57 54/104/58 53/103/58 52/102/57
f 47/97/55 50/100/56 49/99/56 48/98/55
f 43/93/53 46/96/54 45/95/54 44/94/53
f 37/87/50 42/92/52 41/91/52 38/88/50
f 1/111/74 38/112/74 41/113/74 8/114/74
f 17/115/8 11/29/8 35/31/8 29/116/8
f 23/117/8 17/115/8 29/116/8
f 7/118/13 13/49/13 25/48/13 31/119/13
f 2/120/13 7/118/13 31/119/13
